<svg width="25" height="24" viewBox="0 0 25 24" fill="none" xmlns="http://www.w3.org/2000/svg">
<path d="M6.13896 8.38937L9.3334 9.3116L12.8445 6.7616L7.80562 6.90604C7.75629 6.90874 7.70847 6.92404 7.66674 6.95049L6.07229 7.86715C6.02269 7.89463 5.98248 7.93636 5.95686 7.98694C5.93123 8.03752 5.92137 8.09462 5.92855 8.15087C5.93573 8.20711 5.95962 8.25991 5.99713 8.30243C6.03464 8.34495 6.08405 8.37524 6.13896 8.38937Z" fill="#E0B100"/>
<path d="M21.8445 5.53371L18.3445 4.77815C18.0502 4.71425 17.7455 4.71441 17.4512 4.77864C17.157 4.84286 16.8799 4.96964 16.639 5.15037L6.06674 12.8337L3.52785 12.7226C3.38243 12.7176 3.23913 12.7585 3.11818 12.8394C2.99723 12.9203 2.90475 13.0371 2.85379 13.1734C2.80283 13.3097 2.79598 13.4586 2.83419 13.599C2.8724 13.7394 2.95374 13.8643 3.06674 13.9559L5.53897 15.917C5.57967 15.9499 5.62811 15.9717 5.67966 15.9805C5.73122 15.9892 5.78415 15.9846 5.83341 15.967C6.53897 15.6948 9.16675 14.3004 12.2723 12.5948L12.8945 18.9893C12.8998 19.0446 12.9201 19.0975 12.9532 19.1422C12.9864 19.1869 13.0311 19.2217 13.0825 19.2429C13.134 19.264 13.1902 19.2707 13.2452 19.2623C13.3002 19.2538 13.3518 19.2305 13.3945 19.1948L14.7834 18.0393C14.8594 17.9755 14.9106 17.887 14.9279 17.7893L16.2445 10.4059C18.4667 9.17259 20.589 7.97815 22.0834 7.13371C22.2385 7.04932 22.3639 6.91929 22.4426 6.76125C22.5213 6.60321 22.5496 6.42479 22.5235 6.25016C22.4974 6.07554 22.4183 5.91315 22.2969 5.78499C22.1754 5.65684 22.0175 5.56911 21.8445 5.53371Z" fill="#E0B100"/>
</svg>
